/* XPM */
static char *b27a41ff8d6942c28d4ebbf960c40410[] = {
/* columns rows colors chars-per-pixel */
"128 128 12 1 ",
"  c #4634B2",
". c #5553CE",
"X c #515ECA",
"o c #4F63C8",
"O c #4974C2",
"+ c #4779C0",
"@ c #3F8FB9",
"# c #3D94B7",
"$ c #399FB3",
"% c #3B9AB5",
"& c #35AAAF",
"* c None",
/* pixels */
"********************************************************************************************************************************",
"********************************************************************************************************************************",
"********************************************************************************************************************************",
"********************************************************************************************************************************",
"********************************************************************************************************************************",
"********************************************************************************************************************************",
"********************************************************************************************************************************",
"********************************************************************************************************************************",
"********************************************************************************************************************************",
"********************************************************************************************************************************",
"********************************************************************************************************************************",
"********************************************************************************************************************************",
"********************************************************************************************************************************",
"********************************************************************************************************************************",
"********************************************************************************************************************************",
"********************************************************************************************************************************",
"********************************************************************************************************************************",
"********************************************************************************************************************************",
"********************************************************************************************************************************",
"********************************************************************************************************************************",
"********************************************************************************************************************************",
"********************************************************************************************************************************",
"****************************************************************************..................**********************************",
"***********************************************************************...........................******************************",
"********************************************************************.................................***************************",
"*****************************************************************.......................................************************",
"***************************************************************...........................................**********************",
"*************************************************************..............................................*********************",
"************************************************************.................................................*******************",
"**********************************************************....................................................******************",
"*********************************************************......................................................*****************",
"********************************************************.........................................................***************",
"******************************************************............................................................**************",
"*****************************************************..............................................................*************",
"****************************************************..........................*************.........................************",
"***************************************************........................*******************.......................***********",
"***************************************************.....................*************************....................***********",
"**************************************************....................*****************************...................**********",
"*************************************************....................*******************************...................*********",
"************************************************...................***********************************..................********",
"************************************************..................*************************************.................********",
"***********************************************..................*******************...*****************.................*******",
"***********************************************.................***************.............*************.................******",
"**********************************************.................*************...................***********................******",
"**********************************************................************......................***********................*****",
"*********************************************................***********..........................**********...............*****",
"*********************************************...............**********.............................**********...............****",
"********************************************...............**********...............................**********..............****",
"********************************************...............*********.................................**********..............***",
"********************************************..............*********...................................*********..............***",
"*******************************************...............********.....................................*********..............**",
"*******************************************..............********.......................................*********.............**",
"*****************************************................********........................................********.............**",
"**************************************..................********.........................................*********.............*",
"***********************************.....................********........................................**********.............*",
"********************************........................*******......................................*************.........XO@&*",
"*****************************..........................********...................................*****************.....X+%&&&&*",
"**************************.............................*******.................................********************..o+%&&&&&&&*",
"***********************................................*******..............................***********************#$&&&&&&&&&&&",
"********************...................................*******...........................***********************&&&&&&&&&&&&&&&&",
"*****************......................................*******........................***********************&&&&&&&&&&&&&&&&&&&",
"****************........................*.............*******......................***********************&&&&&&&&&&&&&&&&&&&&&&",
"***************......................****.............*******...................***********************&&&&&&&&&&&&&&&&&&&&&&&**",
"**************....................*******.............*******................***********************&&&&&&&&&&&&&&&&&&&&&&&*****",
"**************.................**********.............*******............************************&&&&&&&&&&&&&&&&&&&&&&*********",
"***  *********..............*************.............*******.........************************&&&&&&&&&&&&&&&&&&&&&&************",
"*       ******...........****************.............*******......***********************&&&&&&&&&&&&&&&&&&&&&&&***************",
"         ******.......*****************...............*******...***********************&&&&&&&&&&&&&&&&&&&&&&&******************",
"         ***************************..................******************************&&&&&&&&&&&&&&&&&&&&&&&&********************",
"         ************************.....................***************************&&&&&&&&&&&&&&&&&&&&&&&&&&&********************",
"*       **********************........................************************&&&&&&&&&&&&&&&&&&&&&&&&&&&&&&*****************&&&",
"**     ********************.........................***********************&&&&&&&&&&&&&&&&&&&&&&&&&&&&&&&&&**************&&&&&&",
"*************************........................***********************&&&&&&&&&&&&&&&&&&&&&&&&&&&&&&&&&&&*************&&&&&&&&",
"************************.....................************************&&&&&&&&&&&&&&&&&&&&&&&&&&&&&&&&&&&&&&**********&&&&&&&&&&&",
"************************..................***********************&&&&&&&&&&&&&&&&&&&&&&&&&&&&&&&&&&&&&&&&&&********&&&&&&&&&&&&*",
"************************...............*************************&&&&&&&&&&&&&&&&&&&&&&&&&&&&&&&&&&&&&&&&&&*********&&&&&&&&&&&&*",
"************************............****************************&&&&&&&&&&&&&&&&&&&&&&&&&&&&&&&&&&&&&&&&&&********&&&&&&&&&&&&&*",
"************************........*********************************&&&&&&&&&&&&&&&&&&&&&&&&&&&&&&&&&&&&&&&&*********&&&&&&&&&&&&&*",
"*************************....***************************&*********&&&&&&&&&&&&&&&&&&&&&&&&&&&&&&&&&&&&&&&*********&&&&&&&&&&&&**",
"****************************************************&&&&&*********&&&&&&&&&&&&&&&&&&&&&&&&&&&&&&&&&&&&&&*********&&&&&&&&&&&&&**",
"************************************************&&&&&&&&&&*********&&&&&&&&&&&&&&&&&&&&&&&&&&&&&&&&&&&&&*********&&&&&&&&&&&&***",
"*********************************************&&&&&&&&&&&&&&*********&&&&&&&&&&&&&&&&&&&&&&&&&&&&&&&&&&&*********&&&&&&&&&&&&&***",
"*****************************************&&&&&&&&&&&&&&&&&&**********&&&&&&&&&&&&&&&&&&&&&&&&&&&&&&&&&*********&&&&&&&&&&&&&&***",
"***************************************&&&&&&&&&&&&&&&&&&&&&**********&&&&&&&&&&&&&&&&&&&&&&&&&&&&&&&**********&&&&&&&&&&&&&****",
"**************************************&&&&&&&&&&&&&&&&&&&&&&&**********&&&&&&&&&&&&&&&&&&&&&&&&&&&&***********&&&&&&&&&&&&&&****",
"*************************************&&&&&&&&&&&&&&&&&&&&&&&&&***********&&&&&&&&&&&&&&&&&&&&&&&&&***********&&&&&&&&&&&&&&*****",
"*************************************&&&&&&&&&&&&&&&&&&&&&&&&&&************&&&&&&&&&&&&&&&&&&&&&************&&&&&&&&&&&&&&&*****",
"*************************************&&&&&&&&&&&&&&&&&&&&&&&&&&&**************&&&&&&&&&&&&&&&***************&&&&&&&&&&&&&&******",
"**************************************&&&&&&&&&&&&&&&&&&&&&&&&&&&******************&&&&&*******************&&&&&&&&&&&&&&*******",
"*************************&&&&&*********&&&&&*****&&&&&&&&&&&&&&&&&***************************************&&&&&&&&&&&&&&&&*******",
"************************&&&&&&&******************&&&&&&&&&&&&&&&&&&*************************************&&&&&&&&&&&&&&&&********",
"************************&&&&&&&&*****************&&&&&&&&&&&&&&&&&&&***********************************&&&&&&&&&&&&&&&&*********",
"************************&&&&&&&&****************&&&&&&&&&&&&&&&&&&&&&&*******************************&&&&&&&&&&&&&&&&&**********",
"************************&&&&&&&****************&&&&&&&&&&&&&&&&&&&&&&&&****************************&&&&&&&&&&&&&&&&&&***********",
"*************************&&&&&&*************&&&&&&&&&&&&&&&&&&&&&&&&&&&&&************************&&&&&&&&&&&&&&&&&&&************",
"*****************************************&&&&&&&&&&&&&&&&&&&&&&&&&&&&&&&&&&&******************&&&&&&&&&&&&&&&&&&&&&*************",
"**************************************&&&&&&&&&&&&&&&&&&&&&&&&&&&&&&&&&&&&&&&&&***********&&&&&&&&&&&&&&&&&&&&&&&&**************",
"***********************************&&&&&&&&&&&&&&&&&&&&&&&&&&&&&&&&&&&&&&&&&&&&&&&&&&&&&&&&&&&&&&&&&&&&&&&&&&&&&&***************",
"*******************************&&&&&&&&&&&&&&&&&&&&&&&&**&&&&&&&&&&&&&&&&&&&&&&&&&&&&&&&&&&&&&&&&&&&&&&&&&&&&&&&****************",
"******************************&&&&&&&&&&&&&&&&&&&&&&******&&&&&&&&&&&&&&&&&&&&&&&&&&&&&&&&&&&&&&&&&&&&&&&&&&&&&*****************",
"*****************************&&&&&&&&&&&&&&&&&&&&**********&&&&&&&&&&&&&&&&&&&&&&&&&&&&&&&&&&&&&&&&&&&&&&&&&&*******************",
"*****************************&&&&&&&&&&&&&&&&&***************&&&&&&&&&&&&&&&&&&&&&&&&&&&&&&&&&&&&&&&&&&&&&&&********************",
"*****************************&&&&&&&&&&&&&&*******************&&&&&&&&&&&&&&&&&&&&&&&&&&&&&&&&&&&&&&&&&&&&**********************",
"*****************************&&&&&&&&&&&&***********************&&&&&&&&&&&&&&&&&&&&&&&&&&&&&&&&&&&&&&&&************************",
"******************************&&&&&&&&****************************&&&&&&&&&&&&&&&&&&&&&&&&&&&&&&&&&&&&**************************",
"********************************&&&**********************************&&&&&&&&&&&&&&&&&&&&&&&&&&&&&&&****************************",
"***********************************************************************&&&&&&&&&&&&&&&&&&&&&&&&&&&******************************",
"***************************************************************************&&&&&&&&&&&&&&&&&&&**********************************",
"********************************************************************************************************************************",
"********************************************************************************************************************************",
"********************************************************************************************************************************",
"********************************************************************************************************************************",
"********************************************************************************************************************************",
"********************************************************************************************************************************",
"********************************************************************************************************************************",
"********************************************************************************************************************************",
"********************************************************************************************************************************",
"********************************************************************************************************************************",
"********************************************************************************************************************************",
"********************************************************************************************************************************",
"********************************************************************************************************************************",
"********************************************************************************************************************************",
"********************************************************************************************************************************",
"********************************************************************************************************************************",
"********************************************************************************************************************************",
"********************************************************************************************************************************",
"********************************************************************************************************************************",
"********************************************************************************************************************************"
};
