/* XPM */
static char *_ac75fd5884d4e118e80aa7fe8949dc8[] = {
/* columns rows colors chars-per-pixel */
"32 32 6 1 ",
"  c #5553CE",
". c #4B6EC4",
"X c #399FB3",
"o c #35AAAF",
"O c #4189BB",
"+ c None",
/* pixels */
"++++++++++++++++++++++++++++++++",
"++++++++++++++++++++++++++++++++",
"++++++++++++++++++++++++++++++++",
"++++++++++++++++++++++++++++++++",
"++++++++++++++++++++++++++++++++",
"+++++++++++++++++         ++++++",
"+++++++++++++++            +++++",
"+++++++++++++                +++",
"+++++++++++++      +++++      ++",
"++++++++++++     +++++++++    ++",
"+++++++++++     ++      +++    +",
"+++++++++++    ++         +    +",
"++++++++++    ++          ++    ",
"+++++++       ++         ++++.OX",
"++++          +       +++++ooooo",
"+++     ++    +    +++++oooooo++",
"  ++ ++++     +++++++oooooo+++++",
"++++++       +++++ooooooooo+++oo",
"++++++    ++++++ooooooooooo++ooo",
"++++++++++++ooo++ooooooooo++oooo",
"+++++++++oooooo+++ooooooo++oooo+",
"+++++++++ooooooo++++ooo++++oooo+",
"++++++oo++++oooooo+++++++ooooo++",
"+++++++++oooooooooooooooooooo+++",
"+++++++oooooo++ooooooooooooo++++",
"+++++++ooo++++++oooooooooo++++++",
"+++++++++++++++++++oooo+++++++++",
"++++++++++++++++++++++++++++++++",
"++++++++++++++++++++++++++++++++",
"++++++++++++++++++++++++++++++++",
"++++++++++++++++++++++++++++++++",
"++++++++++++++++++++++++++++++++"
};
