/* XPM */
static char *_1ad30bbc5d44f5f8aae13523c01ab49[] = {
/* columns rows colors chars-per-pixel */
"64 64 10 1 ",
"  c #4634B2",
". c #5553CE",
"X c #515ECA",
"o c #5358CC",
"O c #4974C2",
"+ c #3F8FB9",
"@ c #3B9AB5",
"# c #35AAAF",
"$ c #418ABA",
"% c None",
/* pixels */
"%%%%%%%%%%%%%%%%%%%%%%%%%%%%%%%%%%%%%%%%%%%%%%%%%%%%%%%%%%%%%%%%",
"%%%%%%%%%%%%%%%%%%%%%%%%%%%%%%%%%%%%%%%%%%%%%%%%%%%%%%%%%%%%%%%%",
"%%%%%%%%%%%%%%%%%%%%%%%%%%%%%%%%%%%%%%%%%%%%%%%%%%%%%%%%%%%%%%%%",
"%%%%%%%%%%%%%%%%%%%%%%%%%%%%%%%%%%%%%%%%%%%%%%%%%%%%%%%%%%%%%%%%",
"%%%%%%%%%%%%%%%%%%%%%%%%%%%%%%%%%%%%%%%%%%%%%%%%%%%%%%%%%%%%%%%%",
"%%%%%%%%%%%%%%%%%%%%%%%%%%%%%%%%%%%%%%%%%%%%%%%%%%%%%%%%%%%%%%%%",
"%%%%%%%%%%%%%%%%%%%%%%%%%%%%%%%%%%%%%%%%%%%%%%%%%%%%%%%%%%%%%%%%",
"%%%%%%%%%%%%%%%%%%%%%%%%%%%%%%%%%%%%%%%%%%%%%%%%%%%%%%%%%%%%%%%%",
"%%%%%%%%%%%%%%%%%%%%%%%%%%%%%%%%%%%%%%%%%%%%%%%%%%%%%%%%%%%%%%%%",
"%%%%%%%%%%%%%%%%%%%%%%%%%%%%%%%%%%%%%%%%%%%%%%%%%%%%%%%%%%%%%%%%",
"%%%%%%%%%%%%%%%%%%%%%%%%%%%%%%%%%%%%%%.........%%%%%%%%%%%%%%%%%",
"%%%%%%%%%%%%%%%%%%%%%%%%%%%%%%%%%%................%%%%%%%%%%%%%%",
"%%%%%%%%%%%%%%%%%%%%%%%%%%%%%%%%.....................%%%%%%%%%%%",
"%%%%%%%%%%%%%%%%%%%%%%%%%%%%%%........................%%%%%%%%%%",
"%%%%%%%%%%%%%%%%%%%%%%%%%%%%............................%%%%%%%%",
"%%%%%%%%%%%%%%%%%%%%%%%%%%%..............................%%%%%%%",
"%%%%%%%%%%%%%%%%%%%%%%%%%%..............%%%%..............%%%%%%",
"%%%%%%%%%%%%%%%%%%%%%%%%%............%%%%%%%%%%%...........%%%%%",
"%%%%%%%%%%%%%%%%%%%%%%%%%..........%%%%%%%%%%%%%%%.........%%%%%",
"%%%%%%%%%%%%%%%%%%%%%%%%.........%%%%%%%%%%%%%%%%%%.........%%%%",
"%%%%%%%%%%%%%%%%%%%%%%%.........%%%%%%%.......%%%%%%.........%%%",
"%%%%%%%%%%%%%%%%%%%%%%%........%%%%%%...........%%%%%........%%%",
"%%%%%%%%%%%%%%%%%%%%%%........%%%%%...............%%%%........%%",
"%%%%%%%%%%%%%%%%%%%%%%........%%%%.................%%%%.......%%",
"%%%%%%%%%%%%%%%%%%%%%%.......%%%%...................%%%%.......%",
"%%%%%%%%%%%%%%%%%%%%.........%%%....................%%%%.......%",
"%%%%%%%%%%%%%%%%%...........%%%%....................%%%%%.....o%",
"%%%%%%%%%%%%%%%.............%%%..................%%%%%%%%..XO+##",
"%%%%%%%%%%%%................%%%...............%%%%%%%%%%%$@#####",
"%%%%%%%%%..................%%%%............%%%%%%%%%%%%#########",
"%%%%%%%............%.......%%%%.........%%%%%%%%%%%############%",
"%%%%%%%.........%%%%.......%%%.......%%%%%%%%%%%############%%%%",
"%   %%%......%%%%%%%.......%%%....%%%%%%%%%%%############%%%%%%%",
"     %%%%.%%%%%%%%.........%%%%%%%%%%%%%%%############%%%%%%%%%%",
"    %%%%%%%%%%%............%%%%%%%%%%%%###############%%%%%%%%##",
"%%%%%%%%%%%%%............%%%%%%%%%%%##################%%%%%%####",
"%%%%%%%%%%%%..........%%%%%%%%%%%####################%%%%#######",
"%%%%%%%%%%%%......%%%%%%%%%%%%%%#####################%%%%######%",
"%%%%%%%%%%%%%..%%%%%%%%%%%%%%%%%%####################%%%%######%",
"%%%%%%%%%%%%%%%%%%%%%%%%#####%%%%###################%%%%#######%",
"%%%%%%%%%%%%%%%%%%%%%#########%%%%#################%%%%%######%%",
"%%%%%%%%%%%%%%%%%%%############%%%%%##############%%%%%#######%%",
"%%%%%%%%%%%%%%%%%%#############%%%%%%###########%%%%%%#######%%%",
"%%%%%%%%%%%%%%%%%%%#############%%%%%%%%#####%%%%%%%%########%%%",
"%%%%%%%%%%%%####%%%%#%%%%#########%%%%%%%%%%%%%%%%%%########%%%%",
"%%%%%%%%%%%%####%%%%%%%%###########%%%%%%%%%%%%%%%#########%%%%%",
"%%%%%%%%%%%%###%%%%%%%###############%%%%%%%%%%%##########%%%%%%",
"%%%%%%%%%%%%%%%%%%%#####################%%%%#############%%%%%%%",
"%%%%%%%%%%%%%%%%########################################%%%%%%%%",
"%%%%%%%%%%%%%%%##########%%%%%#########################%%%%%%%%%",
"%%%%%%%%%%%%%%########%%%%%%%%%######################%%%%%%%%%%%",
"%%%%%%%%%%%%%%%####%%%%%%%%%%%%%%##################%%%%%%%%%%%%%",
"%%%%%%%%%%%%%%%%%%%%%%%%%%%%%%%%%%%##############%%%%%%%%%%%%%%%",
"%%%%%%%%%%%%%%%%%%%%%%%%%%%%%%%%%%%%%%%%#####%%%%%%%%%%%%%%%%%%%",
"%%%%%%%%%%%%%%%%%%%%%%%%%%%%%%%%%%%%%%%%%%%%%%%%%%%%%%%%%%%%%%%%",
"%%%%%%%%%%%%%%%%%%%%%%%%%%%%%%%%%%%%%%%%%%%%%%%%%%%%%%%%%%%%%%%%",
"%%%%%%%%%%%%%%%%%%%%%%%%%%%%%%%%%%%%%%%%%%%%%%%%%%%%%%%%%%%%%%%%",
"%%%%%%%%%%%%%%%%%%%%%%%%%%%%%%%%%%%%%%%%%%%%%%%%%%%%%%%%%%%%%%%%",
"%%%%%%%%%%%%%%%%%%%%%%%%%%%%%%%%%%%%%%%%%%%%%%%%%%%%%%%%%%%%%%%%",
"%%%%%%%%%%%%%%%%%%%%%%%%%%%%%%%%%%%%%%%%%%%%%%%%%%%%%%%%%%%%%%%%",
"%%%%%%%%%%%%%%%%%%%%%%%%%%%%%%%%%%%%%%%%%%%%%%%%%%%%%%%%%%%%%%%%",
"%%%%%%%%%%%%%%%%%%%%%%%%%%%%%%%%%%%%%%%%%%%%%%%%%%%%%%%%%%%%%%%%",
"%%%%%%%%%%%%%%%%%%%%%%%%%%%%%%%%%%%%%%%%%%%%%%%%%%%%%%%%%%%%%%%%",
"%%%%%%%%%%%%%%%%%%%%%%%%%%%%%%%%%%%%%%%%%%%%%%%%%%%%%%%%%%%%%%%%"
};
